<svg t="1733497171559" class="icon" viewBox="0 0 1024 1024" version="1.1" xmlns="http://www.w3.org/2000/svg" p-id="1035"
  width="200" height="200">
  <path
    d="M133.12 412.8768a2353.0496 2353.0496 0 0 0 378.2144 29.4912 2387.2512 2387.2512 0 0 0 382.5664-30.3104 58.7264 58.7264 0 0 0 45.0048-79.6672c-62.2592-157.696-205.1584-234.3936-436.7872-234.3936-213.5552 0-344.832 74.1888-413.2352 233.5232a58.8288 58.8288 0 0 0 2.4064 51.712A58.2144 58.2144 0 0 0 133.12 412.8768zM126.5152 347.648C164.9664 258.048 245.76 138.9568 502.1184 138.9568c212.8896 0 343.296 68.1984 398.6944 208.4864a17.9712 17.9712 0 0 1-1.0752 15.36 17.3056 17.3056 0 0 1-12.4416 8.6528c-343.552 56.32-637.2352 19.3024-747.52 0.8704A17.2032 17.2032 0 0 1 127.232 363.52a18.2784 18.2784 0 0 1-0.7168-15.872z"
    fill="#333333" p-id="1036"></path>
  <path
    d="M210.8928 503.4496c2.4576 1.5872 5.12 3.4304 7.8336 5.12 16.2816 11.264 40.96 28.3648 71.68 28.3648 19.8144 0 42.0864-7.2704 65.8944-28.1088l0.6656-0.5632c32.8704-31.232 49.3568-35.3792 95.3344-2.9184 57.9584 40.96 93.0304 40.96 139.0592-0.5632 28.1088-25.2416 47.104-31.6928 85.248-3.1744 55.5008 41.5232 109.056 41.728 147.0464 0.6144 12.9024-12.9024 27.4944-18.7904 36.3008-18.8416a20.48 20.48 0 1 0-0.4096-40.96c-21.6576 0-46.08 11.8784-65.2288 31.1808l-0.512 0.6144c-8.6528 9.3696-34.816 37.888-92.672-5.12-50.1248-37.4784-91.136-35.84-137.1648 5.4784-26.4704 23.7568-39.168 32.0512-88.0128-2.4576-59.3408-42.0352-97.8432-40.192-146.9952 6.3488-33.792 29.3376-56.32 17.7152-87.04-3.4304-3.072-2.0992-6.0416-4.1472-8.8064-5.9392a178.688 178.688 0 0 0-62.5152-24.2688 20.48 20.48 0 0 0-6.4 40.448 138.24 138.24 0 0 1 46.6944 18.176z"
    fill="#333333" p-id="1037"></path>
  <path
    d="M89.6512 611.6864a70.144 70.144 0 0 0 70.0416 70.0416h707.6864a70.0416 70.0416 0 1 0 0-140.0832H159.6928a70.144 70.144 0 0 0-70.0416 70.0416z m70.0416-29.0816h707.6864a29.0816 29.0816 0 1 1 0 58.1632H159.6928a29.0816 29.0816 0 0 1 0-58.1632zM922.5728 705.8944H104.5504a20.48 20.48 0 0 0-20.48 20.7872l1.2288 89.088a70.4512 70.4512 0 0 0 53.504 66.56c65.9456 16.9472 204.8 45.3632 393.8816 45.3632 186.7264 0 307.2-31.2832 362.0352-49.92a70.1952 70.1952 0 0 0 48.3328-66.048v-85.3504a20.48 20.48 0 0 0-20.48-20.48z m-20.48 105.9328a29.2864 29.2864 0 0 1-20.48 27.2384c-52.6848 17.8176-168.0896 47.7696-348.928 47.7696-184.576 0-319.6416-27.5968-383.6928-44.0832a29.44 29.44 0 0 1-22.7328-27.5456l-0.9728-68.352h776.8064z"
    fill="#333333" p-id="1038"></path>
</svg>